<?xml version="1.0" encoding="utf-8"?>
<!-- Generator: Adobe Illustrator 19.2.1, SVG Export Plug-In . SVG Version: 6.00 Build 0)  -->
<svg version="1.1" id="layer" xmlns="http://www.w3.org/2000/svg" xmlns:xlink="http://www.w3.org/1999/xlink" x="0px" y="0px"
	 viewBox="0 0 652 652" style="enable-background:new 0 0 652 652;" xml:space="preserve">
<style type="text/css">
	.st0{fill-rule:evenodd;clip-rule:evenodd;}
	.st1{fill:none;stroke:#000000;stroke-width:3.1033;stroke-miterlimit:3.864;}
	.st2{fill-rule:evenodd;clip-rule:evenodd;fill:#E92B25;}
	.st3{fill:none;stroke:#000000;stroke-width:2.0876;stroke-miterlimit:1;}
	.st4{font-family:'ArialMT';}
	.st5{font-size:20.5673px;}
</style>
<polyline class="st0" points="406.1,242 355.3,242 303.8,357.5 252.8,242 200,241.9 302.8,460.2 406.1,242 "/>
<g>
	<polygon class="st1" points="406.1,242 355.3,242 303.8,357.5 252.8,242 200,241.9 302.8,460.2 	"/>
</g>
<path class="st0" d="M604.1,347.8c0-56-43.1-105.7-108.5-105.7c-65.4,0-105.6,52-105.7,107.5c0,67.4,44.7,110.6,106.5,110.6
	C560.3,460.3,604.1,410.3,604.1,347.8 M555.3,350.7c0,37.2-17.6,65.9-60.4,65.9c-35.2,0-56.3-25.8-56.3-67c0-35.2,21.1-64,56.9-63.9
	C532.3,285.7,555.4,310.6,555.3,350.7z"/>
<g>
	<path class="st1" d="M555.3,350.7c0,37.2-17.6,65.9-60.4,65.9c-35.2,0-56.3-25.8-56.3-67c0-35.2,21.1-64,56.9-63.9
		C532.3,285.7,555.4,310.6,555.3,350.7z"/>
	<path class="st1" d="M604.1,347.8c0-56-43.1-105.7-108.5-105.7c-65.4,0-105.6,52-105.7,107.5c0,67.4,44.7,110.6,106.5,110.6
		C560.3,460.3,604.1,410.3,604.1,347.8z"/>
</g>
<polyline class="st2" points="34.9,188.6 184.8,188.6 184.8,224.3 34.9,224.3 34.9,188.6 "/>
<path class="st0" d="M184.4,391.7c-19.1,14.4-37.3,24.8-69.9,24.7c-36.7,0-60.3-26.3-61.8-59.5l164.4,0.1c0-67-42.2-115.1-105-115.1
	c-62.8,0-107.1,46.5-107.2,107c0,69.4,47.7,111.1,109,111.2c38.3,0,65.3-12.2,88.9-30L184.4,391.7 M165.3,321.2l-110.6-0.1
	C60.3,298.4,82.9,284,110,284C136.7,284,157.8,297.4,165.3,321.2z"/>
<g>
	<path class="st1" d="M165.3,321.2l-110.6-0.1C60.3,298.4,82.9,284,110,284C136.7,284,157.8,297.4,165.3,321.2z"/>
	<path class="st1" d="M184.4,391.7c-19.1,14.4-37.3,24.8-69.9,24.7c-36.7,0-60.3-26.3-61.8-59.5l164.4,0.1
		c0-67-42.2-115.1-105-115.1c-62.8,0-107.1,46.6-107.2,107c0,69.4,47.7,111.1,109,111.2c38.3,0,65.3-12.2,88.9-30.1L184.4,391.7z"/>
</g>
<path class="st3" d="M604.9,449.1c0,6.8-5.3,12.3-11.8,12.2c-6.5,0-11.8-5.5-11.7-12.3c0-6.8,5.3-12.3,11.8-12.2
	C599.7,436.8,604.9,442.3,604.9,449.1z"/>
<text transform="matrix(1 3.401649e-003 -3.566246e-003 1.0422 585.8792 456.3604)" class="st4 st5">R</text>
</svg>
