<svg xmlns="http://www.w3.org/2000/svg" viewBox="0 0 113 24"><path fill="#fc6c64" d="M2 12v7h5c2.75 0 5-.45 5-1s-1.575-1-3.5-1C5.667 17 5 16.619 5 15c0-1.556.667-2 3-2 1.65 0 3-.45 3-1s-1.35-1-3-1c-2.333 0-3-.444-3-2 0-1.619.667-2 3.5-2 1.925 0 3.5-.45 3.5-1S9.75 5 7 5H2v7m14.206 0c4.282 9.694 5.415 9.198 10.865-4.75 1.927-4.931-1.868-2.099-4.019 3l-2.215 5.25-2.168-5.249c-1.409-3.41-2.762-5.249-3.862-5.25C13.35 5 13.545 5.975 16.206 12M31 7c-2.802 2.802-2.683 8.408.223 10.443 5.157 3.612 12.11.487 12.11-5.443 0-6.151-7.956-9.377-12.333-5m17.223-.443c-6.746 4.725.281 14.873 8.195 11.836C58.151 17.728 58.672 12 57 12c-.55 0-1 .873-1 1.941 0 3.795-5.004 3.789-7.036-.009-2.019-3.771 3.278-8.636 6.495-5.966 1.016.843 1.545.836 2.08-.029 1.764-2.854-5.646-3.951-9.316-1.38m14.235 2.781c1.398 2.386 2.542 5.536 2.542 7 0 1.7.542 2.662 1.5 2.662.936 0 1.5-.947 1.5-2.52 0-1.386 1.157-4.353 2.572-6.594 1.415-2.241 2.326-4.322 2.024-4.623-.806-.807-3.425 1.623-4.125 3.827-.842 2.655-1.754 2.394-3.812-1.09-.975-1.65-2.441-3-3.258-3-1.151 0-.914.975 1.057 4.338M75 12c0 5.556.31 7 1.5 7 1.097 0 1.501-1.141 1.504-4.25l.003-4.25 1.982 3.25c1.09 1.788 2.427 3.25 2.971 3.25s1.788-1.462 2.764-3.25L87.5 10.5l.307 4.25c.21 2.894.768 4.25 1.75 4.25C90.677 19 91 17.432 91 12c0-8.318-1.603-9.257-5.12-3-2.789 4.962-3.211 4.962-6 0C76.43 2.862 75 3.741 75 12M33.75 8.08c-4.45 2.592-.403 10.41 4.132 7.983 3.607-1.93 3.642-6.177.066-8.091-2.171-1.162-2.01-1.166-4.198.108" fill-rule="evenodd"/></svg>